<svg width="51" height="50" viewBox="0 0 51 50" fill="none" xmlns="http://www.w3.org/2000/svg">
<g clip-path="url(#clip0_4582_15848)">
<path d="M25.7214 29.3323C26.4023 28.7483 27.2054 28.3149 28.0984 28.2126C31.7779 28.4432 35.7827 27.9169 39.4245 28.2126C39.9635 28.2572 40.3947 28.4637 40.9032 28.5883C40.9966 27.8592 41.3991 27.1096 41.9021 26.5981C42.1195 26.3768 42.8418 25.9713 42.8813 25.7518L42.8041 17.5528C42.3531 16.0611 41.241 15.3877 39.7857 15.2836C39.1712 15.2389 37.795 15.5273 37.5039 14.9488C36.8697 13.6877 39.1191 13.8477 39.7857 13.8886C42.0674 14.0262 43.7527 15.3003 44.2198 17.6681L44.2288 25.5174C46.0776 25.4486 47.8114 26.8994 47.991 28.8301C48.1168 30.1786 46.9795 34.6576 46.5932 36.1958C46.4136 36.9119 46.3111 37.4774 45.95 38.134C45.1523 39.5922 43.6144 40.6617 41.983 40.7696C42.5579 41.4485 43.167 42.0884 43.2407 43.0481C43.4221 45.4532 40.7433 46.8817 38.9269 45.375L34.525 40.818C34.0471 40.5929 32.4319 40.8905 31.7887 40.7678C31.1455 40.645 31.1132 39.4955 32.1462 39.3746C35.2365 39.0156 39.0167 39.7373 42.1088 39.3653C46.0309 38.891 45.6356 32.2991 46.6597 29.3807C46.7064 26.6316 43.0897 25.962 42.2579 28.6385C41.3847 31.4509 41.8967 34.5609 37.9908 34.8231H12.0182C8.06017 34.5571 8.64049 31.3821 7.73138 28.566C6.87077 25.9043 3.087 26.7246 3.36369 29.5537C4.46145 32.5427 3.93682 39.01 8.06735 39.3783L28.9123 39.3746C29.6848 39.4323 30.0621 40.1744 29.4045 40.7213L15.5451 40.7882L11.0822 45.375C9.23339 46.9114 6.53659 45.4067 6.77735 42.9644C6.86718 42.0549 7.47805 41.4188 8.02423 40.7696C6.3695 40.6599 4.81539 39.5643 4.02486 38.0726C3.6763 37.4123 3.57569 36.8338 3.39603 36.1196C3.00974 34.5776 1.93174 30.387 2.00361 29.0031C2.10782 26.9887 3.86495 25.4505 5.7802 25.5193L5.78918 17.67C5.9401 16.7753 6.31561 16.035 6.8582 15.3357C6.17726 14.7423 4.5423 14.4875 4.92139 13.2357C5.12442 12.5642 6.57432 12.222 7.00912 11.8184C7.44391 11.4147 7.7727 9.85976 8.40692 9.59192C9.73825 9.02833 9.96283 11.2566 10.5665 11.8184C11.2115 12.4173 12.9633 12.5345 12.6956 13.8942L21.3681 13.8904C22.8755 13.9965 24.1098 14.6493 24.9578 15.9402H25.0889C25.8112 14.6419 27.2198 13.989 28.6356 13.8904C30.3101 13.7714 33.2853 13.7305 34.9311 13.8904C35.9156 13.9853 36.1977 14.9227 35.2814 15.2836C33.1111 15.5663 29.8286 14.8558 27.8019 15.4454C24.9919 16.262 25.9549 19.0706 25.7088 21.1836C25.5812 22.2754 24.4511 22.2866 24.3056 21.2636C23.984 19.0148 25.0854 16.3605 22.1316 15.4231C18.3658 15.1236 14.5497 15.3673 10.7641 15.291C10.2683 15.3896 9.80652 17.298 9.25674 17.5435C8.55245 17.8579 7.95776 17.4449 7.75473 16.7381C7.73317 16.6284 7.63256 16.6693 7.56968 16.727C7.40079 16.8758 7.14926 17.5975 7.12231 17.8448V25.7499C7.16722 25.9955 7.84457 26.3228 8.06556 26.5404C8.57042 27.0389 9.00881 27.8648 9.10044 28.5865C9.58553 28.4842 9.97361 28.2572 10.4893 28.2107C14.1329 27.8871 18.2149 28.4637 21.9053 28.2107C22.7982 28.3093 23.5977 28.765 24.2822 29.3305V24.3549C24.2822 23.7839 25.1213 23.3784 25.513 23.8695C25.5471 23.9122 25.7196 24.3289 25.7196 24.3549V29.3305L25.7214 29.3323ZM10.8989 13.524C9.77778 13.1743 9.24596 12.4508 8.78782 11.3831C8.32967 12.4973 7.77809 13.1204 6.67673 13.5686C6.75938 13.7435 7.76551 14.149 7.98111 14.3573C8.30272 14.6661 8.48059 15.4026 8.78782 15.7523C8.87585 15.7523 9.38071 14.5861 9.5496 14.4038C9.66818 14.2755 10.9708 13.6207 10.8989 13.524ZM24.284 33.4244V31.9829C24.284 31.0566 22.8108 29.6634 21.8963 29.6188H10.5018L9.45438 30.0429C9.67177 31.2072 9.79035 32.6562 10.9887 33.1919C11.1001 33.2421 11.6786 33.4244 11.7523 33.4244H24.284ZM25.7214 31.9829C25.6621 32.42 25.7645 32.9724 25.7214 33.4244H38.2531C38.3286 33.4244 38.9053 33.2421 39.0167 33.1919C40.2151 32.6562 40.3354 31.2091 40.551 30.0429L39.5036 29.6188H28.1091C27.0761 29.7601 25.8687 30.9003 25.7214 31.9829ZM13.5041 40.7715H10.0455C9.35915 41.6829 7.41157 42.7226 8.38357 44.073C8.83273 44.6961 9.63404 44.7352 10.2269 44.3055C10.7408 43.9335 12.9633 41.601 13.3711 41.0505C13.4412 40.9575 13.5436 40.9333 13.5059 40.7715H13.5041ZM36.5014 40.7715C36.4618 40.9333 36.566 40.9575 36.6361 41.0505C37.044 41.601 39.2664 43.9335 39.7803 44.3055C40.3732 44.7352 41.1745 44.6961 41.6237 44.073C42.5956 42.7208 40.6481 41.681 39.9617 40.7715H36.5032H36.5014Z" fill="black"/>
<path d="M19.946 3.03347C21.2072 2.73772 21.3402 4.52521 21.9457 5.20225C22.3679 5.67284 23.8519 6.03182 24.0549 6.64563C24.5257 8.06669 22.6841 8.20619 21.9906 8.87022C21.3438 9.48961 21.209 11.4966 19.8759 11.0632C19.274 10.8679 18.8985 9.44683 18.4907 8.96322C17.8978 8.25827 15.828 7.99973 16.3544 6.66423C16.6042 6.03182 18.0271 5.68586 18.4907 5.15761C18.9201 4.66843 19.2596 3.19343 19.9424 3.03347H19.946ZM20.1526 9.24408C20.2388 9.3129 20.8605 7.98671 21.0024 7.84721C21.1785 7.67422 22.3068 7.1497 22.305 7.05856C21.9618 6.73863 21.2629 6.55821 20.9575 6.22341C20.7401 5.98532 20.352 4.95301 20.1957 4.87303C19.734 6.03182 19.1824 6.56007 18.0846 7.05856C19.1375 7.53472 19.7861 8.07599 20.1526 9.24408Z" fill="black"/>
<path d="M37.1078 19.3087C38.0439 19.0948 38.2738 20.4861 37.4258 20.6683C36.5778 20.8506 36.3065 19.491 37.1078 19.3087Z" fill="black"/>
<path d="M12.492 23.585C13.6652 23.2204 13.6508 25.2925 12.5135 24.9223C11.8775 24.714 11.944 23.7561 12.492 23.585Z" fill="black"/>
<path d="M18.5101 23.5867C19.4462 23.3728 19.6762 24.7641 18.8282 24.9464C17.9801 25.1287 17.7088 23.769 18.5101 23.5867Z" fill="black"/>
<path d="M31.0857 23.585C32.2589 23.2204 32.2446 25.2925 31.1073 24.9223C30.4713 24.714 30.5377 23.7561 31.0857 23.585Z" fill="black"/>
<path d="M37.1078 23.5867C38.0439 23.3728 38.2738 24.7641 37.4258 24.9464C36.5778 25.1287 36.3065 23.769 37.1078 23.5867Z" fill="black"/>
<path d="M13.2062 20.4693C12.4767 21.2933 11.4868 19.7513 12.4282 19.3384C13.1271 19.0315 13.7074 19.902 13.2062 20.4693Z" fill="black"/>
<path d="M18.2017 20.4712C17.7041 19.9541 18.261 19.0204 18.9833 19.3366C19.9122 19.7439 18.9689 21.2673 18.2017 20.4712Z" fill="black"/>
<path d="M31.8034 20.4712C31.0362 21.2692 30.0947 19.7439 31.0218 19.3366C31.7423 19.0204 32.301 19.9541 31.8034 20.4712Z" fill="black"/>
<path d="M24.2828 33.4245H11.7511C11.6756 33.4245 11.0989 33.2422 10.9875 33.192C9.7891 32.6563 9.66872 31.2092 9.45312 30.043L10.5006 29.6189H21.895C22.8095 29.6617 24.2828 31.0567 24.2828 31.983V33.4245Z" fill="white"/>
<path d="M25.7221 31.983C25.8694 30.9005 27.0768 29.7603 28.1099 29.6189H39.5043L40.5518 30.043C40.3344 31.2074 40.2158 32.6563 39.0174 33.192C38.906 33.2422 38.3275 33.4245 38.2539 33.4245H25.7221C25.7652 32.9725 25.6628 32.4201 25.7221 31.983Z" fill="white"/>
<path d="M13.5022 40.7715C13.5417 40.9333 13.4375 40.9575 13.3674 41.0505C12.9596 41.6011 10.7371 43.9335 10.2232 44.3055C9.63035 44.7352 8.82903 44.6961 8.37987 44.073C7.40787 42.7208 9.35546 41.681 10.0418 40.7715H13.5004H13.5022Z" fill="white"/>
<path d="M36.5021 40.7715H39.9607C40.647 41.6829 42.5946 42.7226 41.6226 44.073C41.1734 44.6961 40.3721 44.7352 39.7792 44.3055C39.2654 43.9335 37.0429 41.6011 36.635 41.0505C36.565 40.9575 36.4626 40.9333 36.5003 40.7715H36.5021Z" fill="white"/>
<path d="M10.8979 13.5239C10.9698 13.6207 9.66723 14.2754 9.54865 14.4037C9.37976 14.586 8.8749 15.7522 8.78686 15.7522C8.47963 15.4026 8.30176 14.6641 7.98016 14.3572C7.76456 14.1489 6.75843 13.7434 6.67578 13.5686C7.77714 13.1185 8.32871 12.4972 8.78686 11.3831C9.24501 12.4507 9.77682 13.1743 10.8979 13.5239Z" fill="white"/>
<path d="M20.1539 9.2441C19.7874 8.07601 19.1388 7.5366 18.0859 7.05857C19.1855 6.56009 19.7353 6.03184 20.197 4.87305C20.3533 4.95303 20.7414 5.9872 20.9588 6.22342C21.2642 6.55823 21.9649 6.73865 22.3063 7.05857C22.3063 7.14971 21.1798 7.67238 21.0037 7.84722C20.8618 7.98672 20.2401 9.31292 20.1539 9.2441Z" fill="white"/>
</g>
<defs>
<clipPath id="clip0_4582_15848">
<rect width="46" height="43" fill="white" transform="translate(2 3)"/>
</clipPath>
</defs>
</svg>
